<svg width="381" height="208" viewBox="0 0 381 208" fill="none" xmlns="http://www.w3.org/2000/svg">
<path d="M255.48 120.427L248.736 20.5497H208.36L73.3947 199.752L73.5698 207.798L131.813 207.885L162.116 161.97L203.193 101.711L206.433 161.97L208.097 207.885H265.026L255.48 120.427Z" fill="#1868DB"/>
<path d="M265.026 134.161L273.522 207.801L367.236 54.9238H304.789L265.026 134.161Z" fill="#1868DB"/>
<path d="M128.747 126.727L131.725 77.1382L133.477 40.6681C133.477 40.6681 115.259 8.04616 0 0C0 0 27.8514 21.952 60.3447 47.4024C60.7827 47.7522 61.2206 48.102 61.6585 48.4519C61.8337 48.5393 62.0088 48.7142 62.184 48.8017C67.0011 52.6499 71.4678 56.4106 75.5842 60.1713C121.215 101.364 128.835 126.814 128.835 126.814L128.747 126.727Z" fill="#F59E17"/>
<path d="M96.6042 87.1085L74.9712 60.871C73.8326 59.909 72.7816 59.0344 71.7306 58.3347L72.2561 93.318L73.4823 199.667L128.747 126.027C117.186 111.772 106.063 100.14 96.6042 87.1085Z" fill="#F59E17"/>
<path d="M368.812 51.9502L380.373 33.6714H316.438L306.278 51.9502H368.812Z" fill="#F59E17"/>
</svg>
